<?xml version="1.0" encoding="UTF-8" standalone="no"?>
<!DOCTYPE svg PUBLIC "-//W3C//DTD SVG 1.1//EN" "http://www.w3.org/Graphics/SVG/1.1/DTD/svg11.dtd">
<svg xmlns="http://www.w3.org/2000/svg" version="1.1" viewBox="0.00 0.00 500.00 500.00">
<g stroke-width="2.00" fill="none" stroke-linecap="butt">
<path stroke="#788c8d" vector-effect="non-scaling-stroke" d="
  M 329.49 249.26
  L 329.23 242.61"
/>
<path stroke="#d6eef2" vector-effect="non-scaling-stroke" d="
  M 324.26 152.46
  L 323.56 152.10
  Q 323.13 151.88 322.65 151.89
  Q 318.09 151.96 314.66 154.37"
/>
<path stroke="#788c8d" vector-effect="non-scaling-stroke" d="
  M 314.66 154.37
  Q 313.20 154.85 310.88 154.53"
/>
<path stroke="#a19d9b" vector-effect="non-scaling-stroke" d="
  M 323.88 153.95
  L 323.79 154.22
  A 0.29 0.29 0.0 0 1 323.51 154.43
  L 314.66 154.37"
/>
<path stroke="#9d514b" vector-effect="non-scaling-stroke" d="
  M 171.49 186.24
  A 0.65 0.65 0.0 0 0 172.04 187.25
  L 185.02 187.22
  A 0.65 0.65 0.0 0 0 185.60 186.87
  L 199.60 159.53
  A 0.65 0.65 0.0 0 0 199.01 158.59
  L 189.66 158.73
  A 0.65 0.65 0.0 0 0 189.12 159.03
  L 171.49 186.24"
/>
<path stroke="#9d514b" vector-effect="non-scaling-stroke" d="
  M 210.74 186.35
  A 0.47 0.47 0.0 0 0 211.18 186.97
  L 224.43 187.05
  A 0.47 0.47 0.0 0 0 224.89 186.69
  L 231.65 159.30
  A 0.47 0.47 0.0 0 0 231.20 158.71
  L 220.86 158.58
  A 0.47 0.47 0.0 0 0 220.41 158.90
  L 210.74 186.35"
/>
<path stroke="#9d514b" vector-effect="non-scaling-stroke" d="
  M 289.45 186.38
  A 0.74 0.74 0.0 0 0 290.18 186.96
  L 303.49 186.97
  A 0.74 0.74 0.0 0 0 304.19 186.00
  L 295.35 159.10
  A 0.74 0.74 0.0 0 0 294.65 158.59
  L 284.38 158.49
  A 0.74 0.74 0.0 0 0 283.64 159.39
  L 289.45 186.38"
/>
<path stroke="#9d514b" vector-effect="non-scaling-stroke" d="
  M 329.29 186.77
  A 0.59 0.59 0.0 0 0 329.81 187.09
  L 343.54 187.20
  A 0.59 0.59 0.0 0 0 344.03 186.27
  L 324.96 158.76
  A 0.59 0.59 0.0 0 0 324.47 158.51
  L 315.69 158.51
  A 0.59 0.59 0.0 0 0 315.16 159.37
  L 329.29 186.77"
/>
<path stroke="#9d514b" vector-effect="non-scaling-stroke" d="
  M 250.06 186.52
  A 0.40 0.40 0.0 0 0 250.45 186.94
  L 263.84 187.08
  A 0.40 0.40 0.0 0 0 264.25 186.66
  L 263.35 159.09
  A 0.40 0.40 0.0 0 0 262.95 158.70
  L 252.31 158.73
  A 0.40 0.40 0.0 0 0 251.91 159.10
  L 250.06 186.52"
/>
<path stroke="#9d514b" vector-effect="non-scaling-stroke" d="
  M 264.13 190.84
  L 250.27 190.74
  A 0.46 0.46 0.0 0 0 249.81 191.20
  L 249.80 191.90
  A 7.76 7.29 -89.6 0 0 257.04 199.71
  L 257.24 199.71
  A 7.76 7.29 -89.6 0 0 264.58 192.00
  L 264.59 191.30
  A 0.46 0.46 0.0 0 0 264.13 190.84"
/>
<path stroke="#788c8d" vector-effect="non-scaling-stroke" d="
  M 285.01 190.99
  L 269.57 190.77
  A 0.49 0.49 0.0 0 0 269.08 191.26
  L 269.07 191.64
  A 8.09 7.79 -89.2 0 0 276.75 199.83
  L 277.59 199.85
  A 8.09 7.79 -89.2 0 0 285.49 191.86
  L 285.49 191.49
  A 0.49 0.49 0.0 0 0 285.01 190.99"
/>
<path stroke="#9d514b" vector-effect="non-scaling-stroke" d="
  M 304.76 190.85
  L 290.30 190.75
  A 0.41 0.41 0.0 0 0 289.89 191.16
  L 289.89 191.62
  A 8.03 7.49 -89.6 0 0 297.32 199.70
  L 297.62 199.70
  A 8.03 7.49 -89.6 0 0 305.16 191.72
  L 305.17 191.26
  A 0.41 0.41 0.0 0 0 304.76 190.85"
/>
<path stroke="#788c8d" vector-effect="non-scaling-stroke" d="
  M 325.45 190.80
  L 309.83 190.74
  A 0.45 0.45 0.0 0 0 309.37 191.19
  L 309.37 191.53
  A 8.45 8.25 -89.8 0 0 317.59 200.01
  L 317.61 200.01
  A 8.45 8.25 -89.8 0 0 325.89 191.59
  L 325.89 191.25
  A 0.45 0.45 0.0 0 0 325.45 190.80"
/>
<path stroke="#9d514b" vector-effect="non-scaling-stroke" d="
  M 224.16 191.00
  L 210.12 191.00
  A 0.57 0.57 0.0 0 0 209.55 191.57
  L 209.55 191.79
  A 8.05 7.52 -90.0 0 0 217.07 199.84
  L 217.21 199.84
  A 8.05 7.52 -90.0 0 0 224.73 191.79
  L 224.73 191.57
  A 0.57 0.57 0.0 0 0 224.16 191.00"
/>
<path stroke="#788c8d" vector-effect="non-scaling-stroke" d="
  M 244.91 190.98
  L 229.31 190.96
  A 0.26 0.26 0.0 0 0 229.05 191.22
  L 229.05 191.65
  A 8.31 7.96 -89.9 0 0 236.99 199.97
  L 237.19 199.97
  A 8.31 7.96 -89.9 0 0 245.17 191.67
  L 245.17 191.24
  A 0.26 0.26 0.0 0 0 244.91 190.98"
/>
<path stroke="#9d514b" vector-effect="non-scaling-stroke" d="
  M 345.68 191.08
  L 331.41 190.93
  A 0.30 0.30 0.0 0 0 331.10 191.22
  L 331.10 191.41
  A 8.07 7.42 -89.4 0 0 338.44 199.56
  L 338.48 199.56
  A 8.07 7.42 -89.4 0 0 345.98 191.57
  L 345.98 191.38
  A 0.30 0.30 0.0 0 0 345.68 191.08"
/>
<path stroke="#9d514b" vector-effect="non-scaling-stroke" d="
  M 183.52 191.07
  L 169.50 191.25
  A 0.60 0.60 0.0 0 0 168.91 191.85
  L 168.91 192.17
  A 7.66 7.52 89.3 0 0 176.52 199.74
  L 176.70 199.74
  A 7.66 7.52 89.3 0 0 184.13 191.99
  L 184.12 191.67
  A 0.60 0.60 0.0 0 0 183.52 191.07"
/>
<path stroke="#9d514b" vector-effect="non-scaling-stroke" d="
  M 188.74 209.59
  L 191.62 215.35
  Q 191.87 215.86 192.44 215.94
  Q 194.28 216.21 196.35 216.12
  Q 200.11 215.94 200.57 219.44
  Q 203.08 238.67 205.67 257.74"
/>
<path stroke="#8e4943" vector-effect="non-scaling-stroke" d="
  M 205.67 257.74
  L 206.81 266.01
  A 0.69 0.68 -3.8 0 0 207.49 266.60
  L 222.66 266.54
  A 1.24 1.24 0.0 0 0 223.73 265.93
  Q 225.26 263.33 228.74 263.81
  A 0.84 0.83 3.6 0 0 229.69 262.98
  L 229.69 247.04"
/>
<path stroke="#9d514b" vector-effect="non-scaling-stroke" d="
  M 229.69 247.04
  Q 229.74 235.40 229.87 223.75
  Q 229.96 214.38 239.45 214.51
  Q 248.55 214.63 262.31 214.53
  Q 267.00 214.49 269.44 215.90
  Q 273.95 218.48 273.98 225.27
  Q 274.06 240.44 273.84 255.76"
/>
<path stroke="#8e4943" vector-effect="non-scaling-stroke" d="
  M 273.84 255.76
  L 274.07 263.00
  A 0.70 0.70 0.0 0 0 274.87 263.67
  Q 279.72 263.03 281.96 266.08
  Q 282.43 266.72 283.23 266.73
  Q 297.89 266.87 311.86 266.68
  Q 319.99 266.57 323.19 260.92
  Q 324.63 258.38 324.75 252.05
  Q 324.87 245.98 324.95 240.35"
/>
<path stroke="#9d514b" vector-effect="non-scaling-stroke" d="
  M 324.95 240.35
  L 325.08 208.45"
/>
<path stroke="#8e4943" vector-effect="non-scaling-stroke" d="
  M 325.08 208.45
  L 325.21 201.14
  A 0.22 0.22 0.0 0 0 324.83 200.98
  C 319.64 206.21 311.26 204.10 307.46 198.19
  A 0.35 0.35 0.0 0 0 306.86 198.23
  C 302.90 206.32 292.35 205.12 288.01 198.13
  Q 287.57 197.42 287.14 198.14
  Q 283.14 204.99 275.71 203.82
  Q 270.37 202.98 267.63 198.13
  Q 267.21 197.40 266.78 198.12
  C 262.21 205.69 252.09 205.90 247.56 198.21
  A 0.52 0.52 0.0 0 0 246.65 198.24
  C 242.58 206.42 232.08 205.32 227.20 198.52
  Q 226.81 197.97 226.44 198.54
  C 222.13 205.29 211.85 206.03 207.65 198.54
  A 0.59 0.58 -43.1 0 0 206.65 198.51
  Q 202.07 205.56 193.95 203.45
  C 191.81 202.89 190.39 201.51 188.52 200.47
  Q 188.03 200.20 187.86 199.67
  L 187.44 198.35
  A 0.53 0.53 0.0 0 0 186.50 198.21
  Q 183.88 201.98 179.43 203.37
  Q 179.03 203.50 178.74 203.80
  Q 178.58 203.98 178.49 204.19
  A 0.64 0.64 0.0 0 0 179.02 205.08
  Q 184.43 205.61 188.74 209.59"
/>
<path stroke="#e96057" vector-effect="non-scaling-stroke" d="
  M 325.08 208.45
  Q 318.92 211.02 313.27 208.47
  Q 311.58 207.71 309.89 206.86
  C 308.10 205.95 306.48 205.98 304.85 207.18
  C 299.37 211.24 294.57 209.53 289.36 206.24
  Q 288.80 205.88 288.21 206.18
  Q 286.96 206.79 285.88 207.55
  C 279.06 212.32 274.32 209.72 268.00 206.11
  Q 267.52 205.84 267.11 206.21
  Q 266.12 207.11 265.24 208.10
  Q 260.27 213.67 253.54 209.92
  Q 251.53 208.81 250.01 206.96
  A 1.40 1.40 0.0 0 0 247.94 206.86
  Q 244.25 210.57 238.60 211.99
  C 233.34 213.31 231.97 205.13 226.50 207.32
  C 223.77 208.42 221.47 210.16 218.43 210.20
  Q 213.20 210.27 209.28 205.43
  A 1.01 1.00 -47.7 0 0 207.66 205.51
  C 203.21 212.25 196.50 210.57 190.28 207.94
  Q 189.66 207.68 189.13 208.06
  Q 188.55 208.47 188.74 209.59"
/>
<path stroke="#e96057" vector-effect="non-scaling-stroke" d="
  M 324.95 240.35
  Q 321.73 242.06 318.59 244.05
  Q 315.15 246.21 312.19 247.77
  C 301.84 253.22 290.37 255.23 278.75 256.03
  Q 276.62 256.17 273.84 255.76"
/>
<path stroke="#e96057" vector-effect="non-scaling-stroke" d="
  M 229.69 247.04
  L 228.92 252.68
  Q 228.85 253.21 228.97 253.73
  Q 229.27 255.08 229.01 256.28
  Q 228.89 256.84 228.33 256.94
  Q 224.90 257.55 220.75 257.66
  Q 211.26 257.89 205.67 257.74"
/>
<path stroke="#8e4943" vector-effect="non-scaling-stroke" d="
  M 185.52 216.00
  A 0.90 0.90 0.0 0 0 186.20 214.51
  L 183.57 211.49
  A 0.90 0.90 0.0 0 0 183.28 211.27
  L 179.76 209.59
  A 0.90 0.90 0.0 0 0 178.48 210.45
  L 178.72 215.15
  A 0.90 0.90 0.0 0 0 179.62 216.00
  L 185.52 216.00"
/>
<path stroke="#a19d9b" vector-effect="non-scaling-stroke" d="
  M 259.46 218.33
  L 247.44 218.30"
/>
<path stroke="#788c8d" vector-effect="non-scaling-stroke" d="
  M 247.44 218.30
  L 236.87 218.25
  A 2.86 2.86 0.0 0 0 234.00 221.13
  L 234.09 231.43"
/>
<path stroke="#a19d9b" vector-effect="non-scaling-stroke" d="
  M 234.09 231.43
  L 234.06 243.93"
/>
<path stroke="#788c8d" vector-effect="non-scaling-stroke" d="
  M 234.06 243.93
  L 234.09 253.20"
/>
<path stroke="#a19d9b" vector-effect="non-scaling-stroke" d="
  M 234.09 253.20
  L 234.16 263.05
  Q 234.17 263.61 234.73 263.62
  L 237.65 263.68"
/>
<path stroke="#788c8d" vector-effect="non-scaling-stroke" d="
  M 237.65 263.68
  L 269.24 263.72
  A 0.48 0.48 0.0 0 0 269.72 263.24
  L 269.76 234.52"
/>
<path stroke="#a19d9b" vector-effect="non-scaling-stroke" d="
  M 269.76 234.52
  L 269.61 221.70"
/>
<path stroke="#788c8d" vector-effect="non-scaling-stroke" d="
  M 269.61 221.70
  Q 268.53 218.15 264.75 218.10
  Q 261.06 218.05 259.46 218.33"
/>
<path stroke="#d6eef2" vector-effect="non-scaling-stroke" d="
  M 269.61 221.70
  Q 263.49 225.12 259.58 230.18
  Q 259.10 230.81 258.39 231.27
  Q 255.88 232.92 258.18 233.13"
/>
<path stroke="#758c8f" vector-effect="non-scaling-stroke" d="
  M 258.18 233.13
  Q 256.52 233.35 255.77 235.04"
/>
<path stroke="#d6eef2" vector-effect="non-scaling-stroke" d="
  M 255.77 235.04
  L 255.27 234.77
  A 0.69 0.68 33.4 0 0 254.43 234.94
  C 251.51 238.37 247.98 241.02 244.70 244.15
  Q 239.70 248.91 234.09 253.20"
/>
<path stroke="#d6eef2" vector-effect="non-scaling-stroke" d="
  M 234.06 243.93
  Q 249.14 233.14 259.46 218.33"
/>
<path stroke="#d6eef2" vector-effect="non-scaling-stroke" d="
  M 269.76 234.52
  Q 265.19 237.60 259.54 244.29
  Q 252.91 252.14 237.65 263.68"
/>
<path stroke="#9e9d9c" vector-effect="non-scaling-stroke" d="
  M 255.77 235.04
  Q 255.58 237.82 257.91 238.18
  C 261.73 238.77 261.39 232.67 258.18 233.13"
/>
<path stroke="#d6eef2" vector-effect="non-scaling-stroke" d="
  M 247.44 218.30
  Q 242.11 226.25 234.09 231.43"
/>
<path stroke="#7a8552" vector-effect="non-scaling-stroke" d="
  M 145.84 226.49
  L 160.04 226.49
  A 0.63 0.63 0.0 0 0 160.67 225.91
  L 161.06 220.53
  Q 161.12 219.69 160.28 219.69
  L 141.06 219.61
  Q 140.42 219.60 140.31 220.24
  Q 136.83 241.85 134.11 265.06
  Q 133.79 267.85 136.22 269.87
  Q 136.48 270.08 136.82 270.15
  Q 139.74 270.71 140.13 267.76
  L 145.52 226.77
  A 0.33 0.32 -85.9 0 1 145.84 226.49"
/>
<path stroke="#7a8552" vector-effect="non-scaling-stroke" d="
  M 190.88 227.19
  L 196.49 268.19
  Q 196.91 271.30 199.83 270.16
  L 200.68 269.83
  Q 203.01 268.93 202.68 266.45
  Q 200.48 249.80 198.50 235.64
  Q 197.48 228.33 197.01 220.58
  A 1.01 1.00 -1.8 0 0 196.00 219.64
  L 175.81 219.78
  A 0.90 0.89 -82.3 0 0 174.95 220.44
  L 173.53 225.53
  Q 173.36 226.15 174.01 226.16
  L 189.93 226.35
  Q 190.77 226.36 190.88 227.19"
/>
<path stroke="#7a8552" vector-effect="non-scaling-stroke" d="
  M 170.64 221.03
  A 0.94 0.94 0.0 0 0 169.75 219.76
  L 165.25 219.80
  A 0.94 0.94 0.0 0 0 164.37 221.07
  L 166.67 227.09
  A 0.94 0.94 0.0 0 0 168.43 227.07
  L 170.64 221.03"
/>
<path stroke="#7a8552" vector-effect="non-scaling-stroke" d="
  M 144.49 265.84
  A 0.50 0.50 0.0 0 0 144.98 266.40
  L 156.33 266.45
  A 0.50 0.50 0.0 0 0 156.83 265.98
  L 159.39 230.84
  A 0.50 0.50 0.0 0 0 158.89 230.30
  L 149.68 230.31
  A 0.50 0.50 0.0 0 0 149.18 230.74
  L 144.49 265.84"
/>
<path stroke="#7a8552" vector-effect="non-scaling-stroke" d="
  M 168.98 234.78
  A 1.85 1.85 0.0 0 1 166.05 234.15
  Q 165.40 232.67 164.89 231.11
  Q 164.30 229.30 163.39 230.96
  Q 163.35 231.03 163.30 231.89
  Q 162.26 248.83 161.01 265.68
  A 0.49 0.48 2.2 0 0 161.50 266.20
  L 174.19 266.23
  A 0.52 0.52 0.0 0 0 174.71 265.68
  Q 173.85 248.60 172.98 231.28
  Q 172.94 230.42 171.94 230.25
  A 0.91 0.91 0.0 0 0 170.90 230.96
  Q 170.32 233.58 168.98 234.78"
/>
<path stroke="#7a8552" vector-effect="non-scaling-stroke" d="
  M 178.44 266.10
  A 0.41 0.41 0.0 0 0 178.85 266.49
  L 191.52 266.50
  A 0.41 0.41 0.0 0 0 191.93 266.03
  L 187.18 230.82
  A 0.41 0.41 0.0 0 0 186.77 230.47
  L 177.43 230.38
  A 0.41 0.41 0.0 0 0 177.02 230.81
  L 178.44 266.10"
/>
<path stroke="#888481" vector-effect="non-scaling-stroke" d="
  M 278.9160 268.4846
  A 1.15 1.15 0.0 0 0 277.7640 267.3366
  L 228.0441 267.4234
  A 1.15 1.15 0.0 0 0 226.8961 268.5754
  L 226.9040 273.0754
  A 1.15 1.15 0.0 0 0 228.0560 274.2234
  L 277.7759 274.1366
  A 1.15 1.15 0.0 0 0 278.9239 272.9846
  L 278.9160 268.4846"
/>
<path stroke="#7a8552" vector-effect="non-scaling-stroke" d="
  M 163.57 270.04
  A 0.56 0.56 0.0 0 0 163.27 271.07
  L 165.60 272.52
  A 0.56 0.56 0.0 0 0 165.82 272.60
  L 169.25 273.07
  A 0.56 0.56 0.0 0 0 169.66 272.96
  L 172.21 271.03
  A 0.56 0.56 0.0 0 0 171.87 270.02
  L 163.57 270.04"
/>
<path stroke="#fcb4af" vector-effect="non-scaling-stroke" d="
  M 297.7038 217.8326
  A 0.55 0.55 0.0 0 0 297.1557 217.2807
  L 285.3358 217.2394
  A 0.55 0.55 0.0 0 0 284.7839 217.7875
  L 284.7562 225.7074
  A 0.55 0.55 0.0 0 0 285.3043 226.2593
  L 297.1242 226.3006
  A 0.55 0.55 0.0 0 0 297.6761 225.7525
  L 297.7038 217.8326"
/>
<path stroke="#fcb4af" vector-effect="non-scaling-stroke" d="
  M 315.7087 217.7147
  A 0.35 0.35 0.0 0 0 315.3611 217.3623
  L 303.2814 217.2779
  A 0.35 0.35 0.0 0 0 302.9290 217.6255
  L 302.8713 225.8853
  A 0.35 0.35 0.0 0 0 303.2189 226.2377
  L 315.2986 226.3221
  A 0.35 0.35 0.0 0 0 315.6510 225.9745
  L 315.7087 217.7147"
/>
<path stroke="#fcb4af" vector-effect="non-scaling-stroke" d="
  M 297.50 237.42
  L 297.64 228.56
  A 0.26 0.26 0.0 0 0 297.38 228.30
  L 285.08 228.10
  A 1.06 0.20 -89.1 0 0 284.87 229.16
  L 284.75 236.42
  A 1.06 0.20 -89.1 0 0 284.94 237.48
  L 297.24 237.68
  A 0.26 0.26 0.0 0 0 297.50 237.42"
/>
<path stroke="#fcb4af" vector-effect="non-scaling-stroke" d="
  M 315.18 228.22
  L 303.55 228.20
  Q 302.99 228.20 302.99 228.76
  L 303.04 237.58
  Q 303.04 238.31 303.74 238.07
  Q 309.30 236.15 314.68 238.22
  Q 315.27 238.45 315.29 237.81
  L 315.48 228.53
  A 0.31 0.30 90.0 0 0 315.18 228.22"
/>
</g>
<path fill="#addde4" d="
  M 329.49 249.26
  L 329.23 242.61
  Q 331.67 238.98 335.41 236.94
  Q 337.74 235.67 339.79 234.40
  Q 345.78 230.70 350.99 223.63
  Q 354.81 218.45 355.99 212.10
  Q 357.82 202.30 356.52 193.00
  C 356.00 189.28 355.71 185.61 354.86 181.96
  Q 352.17 170.34 342.83 160.52
  Q 338.51 155.98 331.48 153.24
  C 329.85 152.60 325.90 151.28 324.26 152.46
  L 323.56 152.10
  Q 323.13 151.88 322.65 151.89
  Q 318.09 151.96 314.66 154.37
  Q 313.20 154.85 310.88 154.53
  Q 304.42 147.06 302.27 144.98
  Q 296.26 139.18 286.95 136.26
  Q 266.00 129.69 244.86 137.42
  Q 241.73 138.56 238.68 141.06
  Q 237.04 142.40 238.37 140.75
  Q 241.26 137.18 245.49 134.99
  Q 262.19 126.32 280.99 129.50
  Q 297.84 132.36 314.46 140.53
  C 316.20 141.38 317.86 141.99 319.72 142.49
  Q 348.06 150.14 357.18 177.17
  Q 361.46 189.86 360.11 206.57
  Q 358.35 228.34 340.58 243.59
  Q 334.68 248.66 329.49 249.26
  Z"
/>
<path fill="#ffffff" d="
  M 324.26 152.46
  Q 323.55 153.06 323.88 153.95
  L 323.79 154.22
  A 0.29 0.29 0.0 0 1 323.51 154.43
  L 314.66 154.37
  Q 318.09 151.96 322.65 151.89
  Q 323.13 151.88 323.56 152.10
  L 324.26 152.46
  Z"
/>
<path fill="#423a36" d="
  M 323.88 153.95
  Q 323.91 154.08 323.99 154.19
  A 0.49 0.47 76.7 0 0 324.32 154.40
  Q 327.16 154.85 328.76 157.19
  Q 339.20 172.45 349.71 187.92
  C 350.62 189.26 350.08 190.20 350.06 191.57
  Q 349.99 197.05 344.88 201.50
  C 339.77 205.95 333.06 203.58 329.63 198.32
  Q 328.97 197.31 328.98 198.52
  L 329.23 242.61
  L 329.49 249.26
  Q 328.75 250.59 328.81 254.76
  Q 328.87 259.59 325.63 264.00
  C 322.04 268.89 317.39 270.90 311.43 270.85
  Q 297.40 270.74 283.24 270.84
  A 0.74 0.74 0.0 0 0 282.51 271.68
  C 282.85 274.18 282.32 277.79 279.06 277.78
  Q 250.69 277.72 226.73 277.93
  C 222.49 277.96 222.71 274.48 222.65 271.37
  Q 222.64 270.74 222.01 270.75
  L 205.97 270.77
  Q 205.31 270.77 204.86 271.27
  C 201.36 275.20 196.54 275.51 193.39 270.92
  Q 193.14 270.55 192.70 270.55
  L 178.00 270.46
  Q 177.44 270.46 177.16 270.94
  C 173.15 277.68 165.07 278.83 159.63 272.98
  Q 158.72 271.99 157.80 270.94
  Q 157.41 270.48 156.81 270.48
  L 144.38 270.49
  Q 143.93 270.49 143.64 270.84
  Q 139.52 275.85 134.49 273.00
  Q 129.04 269.92 130.26 262.81
  Q 134.34 239.09 136.58 216.85
  Q 136.67 215.99 137.53 215.98
  L 140.83 215.93
  A 0.87 0.87 0.0 0 0 141.67 215.25
  C 144.25 203.22 161.01 202.42 163.62 215.25
  Q 163.81 216.17 164.73 216.15
  A 0.69 0.68 -87.6 0 0 165.40 215.53
  Q 166.13 208.85 174.46 205.76
  Q 176.72 204.92 174.43 204.15
  C 168.20 202.05 164.29 197.25 164.47 190.91
  Q 164.54 188.83 165.94 186.83
  C 170.51 180.30 175.20 173.92 179.26 167.06
  Q 182.80 161.05 187.26 155.17
  Q 187.58 154.75 188.10 154.75
  L 310.88 154.53
  Q 313.20 154.85 314.66 154.37
  L 323.51 154.43
  A 0.29 0.29 0.0 0 0 323.79 154.22
  L 323.88 153.95
  Z
  M 171.49 186.24
  A 0.65 0.65 0.0 0 0 172.04 187.25
  L 185.02 187.22
  A 0.65 0.65 0.0 0 0 185.60 186.87
  L 199.60 159.53
  A 0.65 0.65 0.0 0 0 199.01 158.59
  L 189.66 158.73
  A 0.65 0.65 0.0 0 0 189.12 159.03
  L 171.49 186.24
  Z
  M 190.73 186.18
  A 0.59 0.59 0.0 0 0 191.26 187.03
  L 205.28 187.11
  A 0.59 0.59 0.0 0 0 205.84 186.73
  L 216.18 159.35
  A 0.59 0.59 0.0 0 0 215.63 158.55
  L 204.51 158.56
  A 0.59 0.59 0.0 0 0 203.98 158.89
  L 190.73 186.18
  Z
  M 210.74 186.35
  A 0.47 0.47 0.0 0 0 211.18 186.97
  L 224.43 187.05
  A 0.47 0.47 0.0 0 0 224.89 186.69
  L 231.65 159.30
  A 0.47 0.47 0.0 0 0 231.20 158.71
  L 220.86 158.58
  A 0.47 0.47 0.0 0 0 220.41 158.90
  L 210.74 186.35
  Z
  M 229.43 186.39
  A 0.50 0.50 0.0 0 0 229.91 187.01
  L 245.13 187.13
  A 0.50 0.50 0.0 0 0 245.63 186.66
  L 247.68 159.12
  A 0.50 0.50 0.0 0 0 247.18 158.58
  L 236.57 158.60
  A 0.50 0.50 0.0 0 0 236.09 158.98
  L 229.43 186.39
  Z
  M 289.45 186.38
  A 0.74 0.74 0.0 0 0 290.18 186.96
  L 303.49 186.97
  A 0.74 0.74 0.0 0 0 304.19 186.00
  L 295.35 159.10
  A 0.74 0.74 0.0 0 0 294.65 158.59
  L 284.38 158.49
  A 0.74 0.74 0.0 0 0 283.64 159.39
  L 289.45 186.38
  Z
  M 308.38 186.34
  A 0.93 0.93 0.0 0 0 309.27 186.98
  L 323.73 187.03
  A 0.93 0.93 0.0 0 0 324.56 185.67
  L 310.48 159.01
  A 0.93 0.93 0.0 0 0 309.66 158.51
  L 300.72 158.51
  A 0.93 0.93 0.0 0 0 299.83 159.72
  L 308.38 186.34
  Z
  M 329.29 186.77
  A 0.59 0.59 0.0 0 0 329.81 187.09
  L 343.54 187.20
  A 0.59 0.59 0.0 0 0 344.03 186.27
  L 324.96 158.76
  A 0.59 0.59 0.0 0 0 324.47 158.51
  L 315.69 158.51
  A 0.59 0.59 0.0 0 0 315.16 159.37
  L 329.29 186.77
  Z
  M 250.06 186.52
  A 0.40 0.40 0.0 0 0 250.45 186.94
  L 263.84 187.08
  A 0.40 0.40 0.0 0 0 264.25 186.66
  L 263.35 159.09
  A 0.40 0.40 0.0 0 0 262.95 158.70
  L 252.31 158.73
  A 0.40 0.40 0.0 0 0 251.91 159.10
  L 250.06 186.52
  Z
  M 268.99 186.74
  A 0.31 0.31 0.0 0 0 269.29 187.03
  L 284.74 187.22
  A 0.31 0.31 0.0 0 0 285.05 186.85
  L 279.79 158.88
  A 0.31 0.31 0.0 0 0 279.48 158.63
  L 267.88 158.71
  A 0.31 0.31 0.0 0 0 267.58 159.03
  L 268.99 186.74
  Z
  M 204.87 190.92
  L 189.23 190.82
  A 0.23 0.23 0.0 0 0 189.00 191.04
  L 189.00 191.48
  A 8.43 8.00 -89.6 0 0 196.94 199.97
  L 197.04 199.97
  A 8.43 8.00 -89.6 0 0 205.10 191.60
  L 205.10 191.16
  A 0.23 0.23 0.0 0 0 204.87 190.92
  Z
  M 264.13 190.84
  L 250.27 190.74
  A 0.46 0.46 0.0 0 0 249.81 191.20
  L 249.80 191.90
  A 7.76 7.29 -89.6 0 0 257.04 199.71
  L 257.24 199.71
  A 7.76 7.29 -89.6 0 0 264.58 192.00
  L 264.59 191.30
  A 0.46 0.46 0.0 0 0 264.13 190.84
  Z
  M 285.01 190.99
  L 269.57 190.77
  A 0.49 0.49 0.0 0 0 269.08 191.26
  L 269.07 191.64
  A 8.09 7.79 -89.2 0 0 276.75 199.83
  L 277.59 199.85
  A 8.09 7.79 -89.2 0 0 285.49 191.86
  L 285.49 191.49
  A 0.49 0.49 0.0 0 0 285.01 190.99
  Z
  M 304.76 190.85
  L 290.30 190.75
  A 0.41 0.41 0.0 0 0 289.89 191.16
  L 289.89 191.62
  A 8.03 7.49 -89.6 0 0 297.32 199.70
  L 297.62 199.70
  A 8.03 7.49 -89.6 0 0 305.16 191.72
  L 305.17 191.26
  A 0.41 0.41 0.0 0 0 304.76 190.85
  Z
  M 325.45 190.80
  L 309.83 190.74
  A 0.45 0.45 0.0 0 0 309.37 191.19
  L 309.37 191.53
  A 8.45 8.25 -89.8 0 0 317.59 200.01
  L 317.61 200.01
  A 8.45 8.25 -89.8 0 0 325.89 191.59
  L 325.89 191.25
  A 0.45 0.45 0.0 0 0 325.45 190.80
  Z
  M 224.16 191.00
  L 210.12 191.00
  A 0.57 0.57 0.0 0 0 209.55 191.57
  L 209.55 191.79
  A 8.05 7.52 -90.0 0 0 217.07 199.84
  L 217.21 199.84
  A 8.05 7.52 -90.0 0 0 224.73 191.79
  L 224.73 191.57
  A 0.57 0.57 0.0 0 0 224.16 191.00
  Z
  M 244.91 190.98
  L 229.31 190.96
  A 0.26 0.26 0.0 0 0 229.05 191.22
  L 229.05 191.65
  A 8.31 7.96 -89.9 0 0 236.99 199.97
  L 237.19 199.97
  A 8.31 7.96 -89.9 0 0 245.17 191.67
  L 245.17 191.24
  A 0.26 0.26 0.0 0 0 244.91 190.98
  Z
  M 345.68 191.08
  L 331.41 190.93
  A 0.30 0.30 0.0 0 0 331.10 191.22
  L 331.10 191.41
  A 8.07 7.42 -89.4 0 0 338.44 199.56
  L 338.48 199.56
  A 8.07 7.42 -89.4 0 0 345.98 191.57
  L 345.98 191.38
  A 0.30 0.30 0.0 0 0 345.68 191.08
  Z
  M 183.52 191.07
  L 169.50 191.25
  A 0.60 0.60 0.0 0 0 168.91 191.85
  L 168.91 192.17
  A 7.66 7.52 89.3 0 0 176.52 199.74
  L 176.70 199.74
  A 7.66 7.52 89.3 0 0 184.13 191.99
  L 184.12 191.67
  A 0.60 0.60 0.0 0 0 183.52 191.07
  Z
  M 188.74 209.59
  L 191.62 215.35
  Q 191.87 215.86 192.44 215.94
  Q 194.28 216.21 196.35 216.12
  Q 200.11 215.94 200.57 219.44
  Q 203.08 238.67 205.67 257.74
  L 206.81 266.01
  A 0.69 0.68 -3.8 0 0 207.49 266.60
  L 222.66 266.54
  A 1.24 1.24 0.0 0 0 223.73 265.93
  Q 225.26 263.33 228.74 263.81
  A 0.84 0.83 3.6 0 0 229.69 262.98
  L 229.69 247.04
  Q 229.74 235.40 229.87 223.75
  Q 229.96 214.38 239.45 214.51
  Q 248.55 214.63 262.31 214.53
  Q 267.00 214.49 269.44 215.90
  Q 273.95 218.48 273.98 225.27
  Q 274.06 240.44 273.84 255.76
  L 274.07 263.00
  A 0.70 0.70 0.0 0 0 274.87 263.67
  Q 279.72 263.03 281.96 266.08
  Q 282.43 266.72 283.23 266.73
  Q 297.89 266.87 311.86 266.68
  Q 319.99 266.57 323.19 260.92
  Q 324.63 258.38 324.75 252.05
  Q 324.87 245.98 324.95 240.35
  L 325.08 208.45
  L 325.21 201.14
  A 0.22 0.22 0.0 0 0 324.83 200.98
  C 319.64 206.21 311.26 204.10 307.46 198.19
  A 0.35 0.35 0.0 0 0 306.86 198.23
  C 302.90 206.32 292.35 205.12 288.01 198.13
  Q 287.57 197.42 287.14 198.14
  Q 283.14 204.99 275.71 203.82
  Q 270.37 202.98 267.63 198.13
  Q 267.21 197.40 266.78 198.12
  C 262.21 205.69 252.09 205.90 247.56 198.21
  A 0.52 0.52 0.0 0 0 246.65 198.24
  C 242.58 206.42 232.08 205.32 227.20 198.52
  Q 226.81 197.97 226.44 198.54
  C 222.13 205.29 211.85 206.03 207.65 198.54
  A 0.59 0.58 -43.1 0 0 206.65 198.51
  Q 202.07 205.56 193.95 203.45
  C 191.81 202.89 190.39 201.51 188.52 200.47
  Q 188.03 200.20 187.86 199.67
  L 187.44 198.35
  A 0.53 0.53 0.0 0 0 186.50 198.21
  Q 183.88 201.98 179.43 203.37
  Q 179.03 203.50 178.74 203.80
  Q 178.58 203.98 178.49 204.19
  A 0.64 0.64 0.0 0 0 179.02 205.08
  Q 184.43 205.61 188.74 209.59
  Z
  M 185.52 216.00
  A 0.90 0.90 0.0 0 0 186.20 214.51
  L 183.57 211.49
  A 0.90 0.90 0.0 0 0 183.28 211.27
  L 179.76 209.59
  A 0.90 0.90 0.0 0 0 178.48 210.45
  L 178.72 215.15
  A 0.90 0.90 0.0 0 0 179.62 216.00
  L 185.52 216.00
  Z
  M 146.03 216.06
  L 159.55 216.16
  A 0.11 0.11 0.0 0 0 159.66 216.05
  L 159.66 215.97
  A 6.73 5.83 0.4 0 0 152.97 210.09
  L 152.69 210.09
  A 6.73 5.83 0.4 0 0 145.92 215.87
  L 145.92 215.95
  A 0.11 0.11 0.0 0 0 146.03 216.06
  Z
  M 174.85 216.02
  A 0.88 0.88 0.0 0 0 175.70 215.14
  L 175.68 210.81
  A 0.88 0.88 0.0 0 0 174.35 210.06
  L 171.24 211.96
  A 0.88 0.88 0.0 0 0 170.90 212.34
  L 169.72 214.91
  A 0.88 0.88 0.0 0 0 170.55 216.15
  L 174.85 216.02
  Z
  M 259.46 218.33
  L 247.44 218.30
  L 236.87 218.25
  A 2.86 2.86 0.0 0 0 234.00 221.13
  L 234.09 231.43
  L 234.06 243.93
  L 234.09 253.20
  L 234.16 263.05
  Q 234.17 263.61 234.73 263.62
  L 237.65 263.68
  L 269.24 263.72
  A 0.48 0.48 0.0 0 0 269.72 263.24
  L 269.76 234.52
  L 269.61 221.70
  Q 268.53 218.15 264.75 218.10
  Q 261.06 218.05 259.46 218.33
  Z
  M 145.84 226.49
  L 160.04 226.49
  A 0.63 0.63 0.0 0 0 160.67 225.91
  L 161.06 220.53
  Q 161.12 219.69 160.28 219.69
  L 141.06 219.61
  Q 140.42 219.60 140.31 220.24
  Q 136.83 241.85 134.11 265.06
  Q 133.79 267.85 136.22 269.87
  Q 136.48 270.08 136.82 270.15
  Q 139.74 270.71 140.13 267.76
  L 145.52 226.77
  A 0.33 0.32 -85.9 0 1 145.84 226.49
  Z
  M 190.88 227.19
  L 196.49 268.19
  Q 196.91 271.30 199.83 270.16
  L 200.68 269.83
  Q 203.01 268.93 202.68 266.45
  Q 200.48 249.80 198.50 235.64
  Q 197.48 228.33 197.01 220.58
  A 1.01 1.00 -1.8 0 0 196.00 219.64
  L 175.81 219.78
  A 0.90 0.89 -82.3 0 0 174.95 220.44
  L 173.53 225.53
  Q 173.36 226.15 174.01 226.16
  L 189.93 226.35
  Q 190.77 226.36 190.88 227.19
  Z
  M 170.64 221.03
  A 0.94 0.94 0.0 0 0 169.75 219.76
  L 165.25 219.80
  A 0.94 0.94 0.0 0 0 164.37 221.07
  L 166.67 227.09
  A 0.94 0.94 0.0 0 0 168.43 227.07
  L 170.64 221.03
  Z
  M 144.49 265.84
  A 0.50 0.50 0.0 0 0 144.98 266.40
  L 156.33 266.45
  A 0.50 0.50 0.0 0 0 156.83 265.98
  L 159.39 230.84
  A 0.50 0.50 0.0 0 0 158.89 230.30
  L 149.68 230.31
  A 0.50 0.50 0.0 0 0 149.18 230.74
  L 144.49 265.84
  Z
  M 168.98 234.78
  A 1.85 1.85 0.0 0 1 166.05 234.15
  Q 165.40 232.67 164.89 231.11
  Q 164.30 229.30 163.39 230.96
  Q 163.35 231.03 163.30 231.89
  Q 162.26 248.83 161.01 265.68
  A 0.49 0.48 2.2 0 0 161.50 266.20
  L 174.19 266.23
  A 0.52 0.52 0.0 0 0 174.71 265.68
  Q 173.85 248.60 172.98 231.28
  Q 172.94 230.42 171.94 230.25
  A 0.91 0.91 0.0 0 0 170.90 230.96
  Q 170.32 233.58 168.98 234.78
  Z
  M 178.44 266.10
  A 0.41 0.41 0.0 0 0 178.85 266.49
  L 191.52 266.50
  A 0.41 0.41 0.0 0 0 191.93 266.03
  L 187.18 230.82
  A 0.41 0.41 0.0 0 0 186.77 230.47
  L 177.43 230.38
  A 0.41 0.41 0.0 0 0 177.02 230.81
  L 178.44 266.10
  Z
  M 278.9160 268.4846
  A 1.15 1.15 0.0 0 0 277.7640 267.3366
  L 228.0441 267.4234
  A 1.15 1.15 0.0 0 0 226.8961 268.5754
  L 226.9040 273.0754
  A 1.15 1.15 0.0 0 0 228.0560 274.2234
  L 277.7759 274.1366
  A 1.15 1.15 0.0 0 0 278.9239 272.9846
  L 278.9160 268.4846
  Z
  M 163.57 270.04
  A 0.56 0.56 0.0 0 0 163.27 271.07
  L 165.60 272.52
  A 0.56 0.56 0.0 0 0 165.82 272.60
  L 169.25 273.07
  A 0.56 0.56 0.0 0 0 169.66 272.96
  L 172.21 271.03
  A 0.56 0.56 0.0 0 0 171.87 270.02
  L 163.57 270.04
  Z"
/>
<path fill="#f8685f" d="
  M 171.49 186.24
  L 189.12 159.03
  A 0.65 0.65 0.0 0 1 189.66 158.73
  L 199.01 158.59
  A 0.65 0.65 0.0 0 1 199.60 159.53
  L 185.60 186.87
  A 0.65 0.65 0.0 0 1 185.02 187.22
  L 172.04 187.25
  A 0.65 0.65 0.0 0 1 171.49 186.24
  Z"
/>
<path fill="#f8685f" d="
  M 210.74 186.35
  L 220.41 158.90
  A 0.47 0.47 0.0 0 1 220.86 158.58
  L 231.20 158.71
  A 0.47 0.47 0.0 0 1 231.65 159.30
  L 224.89 186.69
  A 0.47 0.47 0.0 0 1 224.43 187.05
  L 211.18 186.97
  A 0.47 0.47 0.0 0 1 210.74 186.35
  Z"
/>
<path fill="#f8685f" d="
  M 289.45 186.38
  L 283.64 159.39
  A 0.74 0.74 0.0 0 1 284.38 158.49
  L 294.65 158.59
  A 0.74 0.74 0.0 0 1 295.35 159.10
  L 304.19 186.00
  A 0.74 0.74 0.0 0 1 303.49 186.97
  L 290.18 186.96
  A 0.74 0.74 0.0 0 1 289.45 186.38
  Z"
/>
<path fill="#f8685f" d="
  M 329.29 186.77
  L 315.16 159.37
  A 0.59 0.59 0.0 0 1 315.69 158.51
  L 324.47 158.51
  A 0.59 0.59 0.0 0 1 324.96 158.76
  L 344.03 186.27
  A 0.59 0.59 0.0 0 1 343.54 187.20
  L 329.81 187.09
  A 0.59 0.59 0.0 0 1 329.29 186.77
  Z"
/>
<path fill="#f8685f" d="
  M 250.06 186.52
  L 251.91 159.10
  A 0.40 0.40 0.0 0 1 252.31 158.73
  L 262.95 158.70
  A 0.40 0.40 0.0 0 1 263.35 159.09
  L 264.25 186.66
  A 0.40 0.40 0.0 0 1 263.84 187.08
  L 250.45 186.94
  A 0.40 0.40 0.0 0 1 250.06 186.52
  Z"
/>
<path fill="#f8685f" d="
  M 264.13 190.84
  A 0.46 0.46 0.0 0 1 264.59 191.30
  L 264.58 192.00
  A 7.76 7.29 -89.6 0 1 257.24 199.71
  L 257.04 199.71
  A 7.76 7.29 -89.6 0 1 249.80 191.90
  L 249.81 191.20
  A 0.46 0.46 0.0 0 1 250.27 190.74
  L 264.13 190.84
  Z"
/>
<path fill="#addde4" d="
  M 285.01 190.99
  A 0.49 0.49 0.0 0 1 285.49 191.49
  L 285.49 191.86
  A 8.09 7.79 -89.2 0 1 277.59 199.85
  L 276.75 199.83
  A 8.09 7.79 -89.2 0 1 269.07 191.64
  L 269.08 191.26
  A 0.49 0.49 0.0 0 1 269.57 190.77
  L 285.01 190.99
  Z"
/>
<path fill="#f8685f" d="
  M 304.76 190.85
  A 0.41 0.41 0.0 0 1 305.17 191.26
  L 305.16 191.72
  A 8.03 7.49 -89.6 0 1 297.62 199.70
  L 297.32 199.70
  A 8.03 7.49 -89.6 0 1 289.89 191.62
  L 289.89 191.16
  A 0.41 0.41 0.0 0 1 290.30 190.75
  L 304.76 190.85
  Z"
/>
<path fill="#addde4" d="
  M 325.45 190.80
  A 0.45 0.45 0.0 0 1 325.89 191.25
  L 325.89 191.59
  A 8.45 8.25 -89.8 0 1 317.61 200.01
  L 317.59 200.01
  A 8.45 8.25 -89.8 0 1 309.37 191.53
  L 309.37 191.19
  A 0.45 0.45 0.0 0 1 309.83 190.74
  L 325.45 190.80
  Z"
/>
<path fill="#f8685f" d="
  M 224.16 191.00
  A 0.57 0.57 0.0 0 1 224.73 191.57
  L 224.73 191.79
  A 8.05 7.52 90.0 0 1 217.21 199.84
  L 217.07 199.84
  A 8.05 7.52 90.0 0 1 209.55 191.79
  L 209.55 191.57
  A 0.57 0.57 0.0 0 1 210.12 191.00
  L 224.16 191.00
  Z"
/>
<path fill="#addde4" d="
  M 244.91 190.98
  A 0.26 0.26 0.0 0 1 245.17 191.24
  L 245.17 191.67
  A 8.31 7.96 -89.9 0 1 237.19 199.97
  L 236.99 199.97
  A 8.31 7.96 -89.9 0 1 229.05 191.65
  L 229.05 191.22
  A 0.26 0.26 0.0 0 1 229.31 190.96
  L 244.91 190.98
  Z"
/>
<path fill="#f8685f" d="
  M 345.68 191.08
  A 0.30 0.30 0.0 0 1 345.98 191.38
  L 345.98 191.57
  A 8.07 7.42 -89.4 0 1 338.48 199.56
  L 338.44 199.56
  A 8.07 7.42 -89.4 0 1 331.10 191.41
  L 331.10 191.22
  A 0.30 0.30 0.0 0 1 331.41 190.93
  L 345.68 191.08
  Z"
/>
<path fill="#f8685f" d="
  M 183.52 191.07
  A 0.60 0.60 0.0 0 1 184.12 191.67
  L 184.13 191.99
  A 7.66 7.52 89.3 0 1 176.70 199.74
  L 176.52 199.74
  A 7.66 7.52 89.3 0 1 168.91 192.17
  L 168.91 191.85
  A 0.60 0.60 0.0 0 1 169.50 191.25
  L 183.52 191.07
  Z"
/>
<path fill="#da574f" d="
  M 325.08 208.45
  Q 318.92 211.02 313.27 208.47
  Q 311.58 207.71 309.89 206.86
  C 308.10 205.95 306.48 205.98 304.85 207.18
  C 299.37 211.24 294.57 209.53 289.36 206.24
  Q 288.80 205.88 288.21 206.18
  Q 286.96 206.79 285.88 207.55
  C 279.06 212.32 274.32 209.72 268.00 206.11
  Q 267.52 205.84 267.11 206.21
  Q 266.12 207.11 265.24 208.10
  Q 260.27 213.67 253.54 209.92
  Q 251.53 208.81 250.01 206.96
  A 1.40 1.40 0.0 0 0 247.94 206.86
  Q 244.25 210.57 238.60 211.99
  C 233.34 213.31 231.97 205.13 226.50 207.32
  C 223.77 208.42 221.47 210.16 218.43 210.20
  Q 213.20 210.27 209.28 205.43
  A 1.01 1.00 -47.7 0 0 207.66 205.51
  C 203.21 212.25 196.50 210.57 190.28 207.94
  Q 189.66 207.68 189.13 208.06
  Q 188.55 208.47 188.74 209.59
  Q 184.43 205.61 179.02 205.08
  A 0.64 0.64 0.0 0 1 178.49 204.19
  Q 178.58 203.98 178.74 203.80
  Q 179.03 203.50 179.43 203.37
  Q 183.88 201.98 186.50 198.21
  A 0.53 0.53 0.0 0 1 187.44 198.35
  L 187.86 199.67
  Q 188.03 200.20 188.52 200.47
  C 190.39 201.51 191.81 202.89 193.95 203.45
  Q 202.07 205.56 206.65 198.51
  A 0.59 0.58 -43.1 0 1 207.65 198.54
  C 211.85 206.03 222.13 205.29 226.44 198.54
  Q 226.81 197.97 227.20 198.52
  C 232.08 205.32 242.58 206.42 246.65 198.24
  A 0.52 0.52 0.0 0 1 247.56 198.21
  C 252.09 205.90 262.21 205.69 266.78 198.12
  Q 267.21 197.40 267.63 198.13
  Q 270.37 202.98 275.71 203.82
  Q 283.14 204.99 287.14 198.14
  Q 287.57 197.42 288.01 198.13
  C 292.35 205.12 302.90 206.32 306.86 198.23
  A 0.35 0.35 0.0 0 1 307.46 198.19
  C 311.26 204.10 319.64 206.21 324.83 200.98
  A 0.22 0.22 0.0 0 1 325.21 201.14
  L 325.08 208.45
  Z"
/>
<path fill="#f8685f" d="
  M 325.08 208.45
  L 324.95 240.35
  Q 321.73 242.06 318.59 244.05
  Q 315.15 246.21 312.19 247.77
  C 301.84 253.22 290.37 255.23 278.75 256.03
  Q 276.62 256.17 273.84 255.76
  Q 274.06 240.44 273.98 225.27
  Q 273.95 218.48 269.44 215.90
  Q 267.00 214.49 262.31 214.53
  Q 248.55 214.63 239.45 214.51
  Q 229.96 214.38 229.87 223.75
  Q 229.74 235.40 229.69 247.04
  L 228.92 252.68
  Q 228.85 253.21 228.97 253.73
  Q 229.27 255.08 229.01 256.28
  Q 228.89 256.84 228.33 256.94
  Q 224.90 257.55 220.75 257.66
  Q 211.26 257.89 205.67 257.74
  Q 203.08 238.67 200.57 219.44
  Q 200.11 215.94 196.35 216.12
  Q 194.28 216.21 192.44 215.94
  Q 191.87 215.86 191.62 215.35
  L 188.74 209.59
  Q 188.55 208.47 189.13 208.06
  Q 189.66 207.68 190.28 207.94
  C 196.50 210.57 203.21 212.25 207.66 205.51
  A 1.01 1.00 -47.7 0 1 209.28 205.43
  Q 213.20 210.27 218.43 210.20
  C 221.47 210.16 223.77 208.42 226.50 207.32
  C 231.97 205.13 233.34 213.31 238.60 211.99
  Q 244.25 210.57 247.94 206.86
  A 1.40 1.40 0.0 0 1 250.01 206.96
  Q 251.53 208.81 253.54 209.92
  Q 260.27 213.67 265.24 208.10
  Q 266.12 207.11 267.11 206.21
  Q 267.52 205.84 268.00 206.11
  C 274.32 209.72 279.06 212.32 285.88 207.55
  Q 286.96 206.79 288.21 206.18
  Q 288.80 205.88 289.36 206.24
  C 294.57 209.53 299.37 211.24 304.85 207.18
  C 306.48 205.98 308.10 205.95 309.89 206.86
  Q 311.58 207.71 313.27 208.47
  Q 318.92 211.02 325.08 208.45
  Z
  M 297.7038 217.8326
  A 0.55 0.55 0.0 0 0 297.1557 217.2807
  L 285.3358 217.2394
  A 0.55 0.55 0.0 0 0 284.7839 217.7875
  L 284.7562 225.7074
  A 0.55 0.55 0.0 0 0 285.3043 226.2593
  L 297.1242 226.3006
  A 0.55 0.55 0.0 0 0 297.6761 225.7525
  L 297.7038 217.8326
  Z
  M 315.7087 217.7147
  A 0.35 0.35 0.0 0 0 315.3611 217.3623
  L 303.2814 217.2779
  A 0.35 0.35 0.0 0 0 302.9290 217.6255
  L 302.8713 225.8853
  A 0.35 0.35 0.0 0 0 303.2189 226.2377
  L 315.2986 226.3221
  A 0.35 0.35 0.0 0 0 315.6510 225.9745
  L 315.7087 217.7147
  Z
  M 297.50 237.42
  L 297.64 228.56
  A 0.26 0.26 0.0 0 0 297.38 228.30
  L 285.08 228.10
  A 1.06 0.20 -89.1 0 0 284.87 229.16
  L 284.75 236.42
  A 1.06 0.20 -89.1 0 0 284.94 237.48
  L 297.24 237.68
  A 0.26 0.26 0.0 0 0 297.50 237.42
  Z
  M 315.18 228.22
  L 303.55 228.20
  Q 302.99 228.20 302.99 228.76
  L 303.04 237.58
  Q 303.04 238.31 303.74 238.07
  Q 309.30 236.15 314.68 238.22
  Q 315.27 238.45 315.29 237.81
  L 315.48 228.53
  A 0.31 0.30 90.0 0 0 315.18 228.22
  Z"
/>
<path fill="#da574f" d="
  M 185.52 216.00
  L 179.62 216.00
  A 0.90 0.90 0.0 0 1 178.72 215.15
  L 178.48 210.45
  A 0.90 0.90 0.0 0 1 179.76 209.59
  L 183.28 211.27
  A 0.90 0.90 0.0 0 1 183.57 211.49
  L 186.20 214.51
  A 0.90 0.90 0.0 0 1 185.52 216.00
  Z"
/>
<rect fill="#ffffff" x="-6.46" y="-4.51" transform="translate(291.23,221.77) rotate(0.2)" width="12.92" height="9.02" rx="0.55"/>
<rect fill="#ffffff" x="-6.39" y="-4.48" transform="translate(309.29,221.80) rotate(0.4)" width="12.78" height="8.96" rx="0.35"/>
<path fill="#addde4" d="
  M 269.61 221.70
  Q 263.49 225.12 259.58 230.18
  Q 259.10 230.81 258.39 231.27
  Q 255.88 232.92 258.18 233.13
  Q 256.52 233.35 255.77 235.04
  L 255.27 234.77
  A 0.69 0.68 33.4 0 0 254.43 234.94
  C 251.51 238.37 247.98 241.02 244.70 244.15
  Q 239.70 248.91 234.09 253.20
  L 234.06 243.93
  Q 249.14 233.14 259.46 218.33
  Q 261.06 218.05 264.75 218.10
  Q 268.53 218.15 269.61 221.70
  Z"
/>
<path fill="#addde4" d="
  M 247.44 218.30
  Q 242.11 226.25 234.09 231.43
  L 234.00 221.13
  A 2.86 2.86 0.0 0 1 236.87 218.25
  L 247.44 218.30
  Z"
/>
<path fill="#ffffff" d="
  M 247.44 218.30
  L 259.46 218.33
  Q 249.14 233.14 234.06 243.93
  L 234.09 231.43
  Q 242.11 226.25 247.44 218.30
  Z"
/>
<path fill="#b2d06d" d="
  M 145.84 226.49
  A 0.33 0.32 -85.9 0 0 145.52 226.77
  L 140.13 267.76
  Q 139.74 270.71 136.82 270.15
  Q 136.48 270.08 136.22 269.87
  Q 133.79 267.85 134.11 265.06
  Q 136.83 241.85 140.31 220.24
  Q 140.42 219.60 141.06 219.61
  L 160.28 219.69
  Q 161.12 219.69 161.06 220.53
  L 160.67 225.91
  A 0.63 0.63 0.0 0 1 160.04 226.49
  L 145.84 226.49
  Z"
/>
<path fill="#b2d06d" d="
  M 190.88 227.19
  Q 190.77 226.36 189.93 226.35
  L 174.01 226.16
  Q 173.36 226.15 173.53 225.53
  L 174.95 220.44
  A 0.90 0.89 -82.3 0 1 175.81 219.78
  L 196.00 219.64
  A 1.01 1.00 -1.8 0 1 197.01 220.58
  Q 197.48 228.33 198.50 235.64
  Q 200.48 249.80 202.68 266.45
  Q 203.01 268.93 200.68 269.83
  L 199.83 270.16
  Q 196.91 271.30 196.49 268.19
  L 190.88 227.19
  Z"
/>
<path fill="#b2d06d" d="
  M 170.64 221.03
  L 168.43 227.07
  A 0.94 0.94 0.0 0 1 166.67 227.09
  L 164.37 221.07
  A 0.94 0.94 0.0 0 1 165.25 219.80
  L 169.75 219.76
  A 0.94 0.94 0.0 0 1 170.64 221.03
  Z"
/>
<path fill="#ffffff" d="
  M 269.61 221.70
  L 269.76 234.52
  Q 265.19 237.60 259.54 244.29
  Q 252.91 252.14 237.65 263.68
  L 234.73 263.62
  Q 234.17 263.61 234.16 263.05
  L 234.09 253.20
  Q 239.70 248.91 244.70 244.15
  C 247.98 241.02 251.51 238.37 254.43 234.94
  A 0.69 0.68 33.4 0 1 255.27 234.77
  L 255.77 235.04
  Q 255.58 237.82 257.91 238.18
  C 261.73 238.77 261.39 232.67 258.18 233.13
  Q 255.88 232.92 258.39 231.27
  Q 259.10 230.81 259.58 230.18
  Q 263.49 225.12 269.61 221.70
  Z"
/>
<path fill="#ffffff" d="
  M 297.50 237.42
  A 0.26 0.26 0.0 0 1 297.24 237.68
  L 284.94 237.48
  A 1.06 0.20 -89.1 0 1 284.75 236.42
  L 284.87 229.16
  A 1.06 0.20 -89.1 0 1 285.08 228.10
  L 297.38 228.30
  A 0.26 0.26 0.0 0 1 297.64 228.56
  L 297.50 237.42
  Z"
/>
<path fill="#ffffff" d="
  M 315.18 228.22
  A 0.31 0.30 -90.0 0 1 315.48 228.53
  L 315.29 237.81
  Q 315.27 238.45 314.68 238.22
  Q 309.30 236.15 303.74 238.07
  Q 303.04 238.31 303.04 237.58
  L 302.99 228.76
  Q 302.99 228.20 303.55 228.20
  L 315.18 228.22
  Z"
/>
<path fill="#b2d06d" d="
  M 144.49 265.84
  L 149.18 230.74
  A 0.50 0.50 0.0 0 1 149.68 230.31
  L 158.89 230.30
  A 0.50 0.50 0.0 0 1 159.39 230.84
  L 156.83 265.98
  A 0.50 0.50 0.0 0 1 156.33 266.45
  L 144.98 266.40
  A 0.50 0.50 0.0 0 1 144.49 265.84
  Z"
/>
<path fill="#b2d06d" d="
  M 168.98 234.78
  Q 170.32 233.58 170.90 230.96
  A 0.91 0.91 0.0 0 1 171.94 230.25
  Q 172.94 230.42 172.98 231.28
  Q 173.85 248.60 174.71 265.68
  A 0.52 0.52 0.0 0 1 174.19 266.23
  L 161.50 266.20
  A 0.49 0.48 2.2 0 1 161.01 265.68
  Q 162.26 248.83 163.30 231.89
  Q 163.35 231.03 163.39 230.96
  Q 164.30 229.30 164.89 231.11
  Q 165.40 232.67 166.05 234.15
  A 1.85 1.85 0.0 0 0 168.98 234.78
  Z"
/>
<path fill="#b2d06d" d="
  M 178.44 266.10
  L 177.02 230.81
  A 0.41 0.41 0.0 0 1 177.43 230.38
  L 186.77 230.47
  A 0.41 0.41 0.0 0 1 187.18 230.82
  L 191.93 266.03
  A 0.41 0.41 0.0 0 1 191.52 266.50
  L 178.85 266.49
  A 0.41 0.41 0.0 0 1 178.44 266.10
  Z"
/>
<path fill="#3c3b39" d="
  M 258.18 233.13
  C 261.39 232.67 261.73 238.77 257.91 238.18
  Q 255.58 237.82 255.77 235.04
  Q 256.52 233.35 258.18 233.13
  Z"
/>
<path fill="#addde4" d="
  M 269.76 234.52
  L 269.72 263.24
  A 0.48 0.48 0.0 0 1 269.24 263.72
  L 237.65 263.68
  Q 252.91 252.14 259.54 244.29
  Q 265.19 237.60 269.76 234.52
  Z"
/>
<path fill="#da574f" d="
  M 324.95 240.35
  Q 324.87 245.98 324.75 252.05
  Q 324.63 258.38 323.19 260.92
  Q 319.99 266.57 311.86 266.68
  Q 297.89 266.87 283.23 266.73
  Q 282.43 266.72 281.96 266.08
  Q 279.72 263.03 274.87 263.67
  A 0.70 0.70 0.0 0 1 274.07 263.00
  L 273.84 255.76
  Q 276.62 256.17 278.75 256.03
  C 290.37 255.23 301.84 253.22 312.19 247.77
  Q 315.15 246.21 318.59 244.05
  Q 321.73 242.06 324.95 240.35
  Z"
/>
<path fill="#da574f" d="
  M 229.69 247.04
  L 229.69 262.98
  A 0.84 0.83 3.6 0 1 228.74 263.81
  Q 225.26 263.33 223.73 265.93
  A 1.24 1.24 0.0 0 1 222.66 266.54
  L 207.49 266.60
  A 0.69 0.68 -3.8 0 1 206.81 266.01
  L 205.67 257.74
  Q 211.26 257.89 220.75 257.66
  Q 224.90 257.55 228.33 256.94
  Q 228.89 256.84 229.01 256.28
  Q 229.27 255.08 228.97 253.73
  Q 228.85 253.21 228.92 252.68
  L 229.69 247.04
  Z"
/>
<rect fill="#cecdcc" x="-26.01" y="-3.40" transform="translate(252.91,270.78) rotate(-0.1)" width="52.02" height="6.80" rx="1.15"/>
<path fill="#b2d06d" d="
  M 163.57 270.04
  L 171.87 270.02
  A 0.56 0.56 0.0 0 1 172.21 271.03
  L 169.66 272.96
  A 0.56 0.56 0.0 0 1 169.25 273.07
  L 165.82 272.60
  A 0.56 0.56 0.0 0 1 165.60 272.52
  L 163.27 271.07
  A 0.56 0.56 0.0 0 1 163.57 270.04
  Z"
/>
<path fill="#3c3b39" d="
  M 153.04 307.30
  C 158.69 305.22 166.33 307.51 166.43 314.59
  Q 166.55 323.42 166.45 332.50
  Q 166.44 332.89 166.06 332.88
  L 158.96 332.77
  Q 158.65 332.76 158.65 332.46
  L 158.66 316.24
  Q 158.66 313.27 155.70 312.93
  Q 155.24 312.88 154.76 312.91
  Q 152.51 313.06 152.52 315.31
  L 152.58 332.74
  Q 152.58 332.89 152.44 332.89
  L 144.82 332.67
  Q 144.57 332.66 144.57 332.41
  L 144.64 296.96
  A 0.86 0.86 0.0 0 1 145.50 296.10
  L 151.81 296.10
  Q 152.52 296.10 152.51 296.81
  L 152.35 306.81
  Q 152.34 307.57 153.04 307.30
  Z"
/>
<path fill="#3c3b39" d="
  M 228.32 308.23
  Q 229.28 310.49 232.18 311.62
  C 237.36 313.63 247.86 317.29 245.61 325.08
  C 242.82 334.70 231.77 334.38 223.72 331.11
  Q 222.03 330.43 223.05 328.91
  Q 223.37 328.44 223.50 327.89
  Q 223.83 326.43 225.14 327.16
  C 228.33 328.95 235.92 330.37 239.14 327.20
  C 242.13 324.27 240.66 319.90 236.99 318.53
  Q 232.64 316.91 228.59 314.93
  C 224.51 312.93 222.23 308.44 223.86 304.15
  Q 225.27 300.46 229.74 298.72
  Q 235.92 296.32 242.91 299.57
  A 1.32 1.32 0.0 0 1 243.57 301.27
  L 242.63 303.56
  Q 242.28 304.39 241.55 303.87
  Q 238.22 301.53 232.55 302.25
  C 229.47 302.64 227.00 305.07 228.32 308.23
  Z"
/>
<path fill="#3c3b39" d="
  M 132.71 324.94
  C 134.41 323.23 132.02 320.76 130.42 320.04
  C 125.85 317.99 118.75 316.19 117.93 310.14
  Q 116.86 302.30 124.27 299.12
  Q 131.27 296.13 139.18 300.32
  Q 139.97 300.74 139.63 301.58
  L 137.88 305.76
  Q 137.53 306.60 136.75 306.12
  C 134.29 304.62 127.92 302.76 126.25 306.46
  C 125.28 308.58 126.90 310.13 128.72 310.76
  C 132.07 311.91 135.56 313.25 138.12 315.69
  C 144.86 322.09 139.40 332.23 131.03 333.22
  Q 124.38 334.00 118.00 330.78
  Q 117.50 330.52 117.59 329.97
  L 118.46 324.52
  A 0.41 0.41 0.0 0 1 119.01 324.20
  C 124.53 326.31 129.87 327.81 132.71 324.94
  Z"
/>
<path fill="#3c3b39" d="
  M 372.18 325.30
  L 378.30 306.71
  Q 378.48 306.17 379.05 306.20
  L 382.40 306.35
  Q 383.12 306.38 382.90 307.07
  Q 378.31 321.50 372.79 334.53
  C 370.99 338.81 366.82 343.44 361.67 342.05
  Q 361.11 341.90 360.81 341.42
  Q 359.69 339.61 360.74 337.37
  A 0.48 0.48 0.0 0 1 361.53 337.24
  C 364.64 340.51 368.36 335.05 369.29 332.62
  Q 369.51 332.06 369.27 331.52
  C 367.43 327.32 365.57 323.17 364.15 318.78
  Q 361.22 309.68 357.90 300.93
  Q 357.59 300.09 358.48 300.08
  L 361.97 300.01
  Q 362.91 299.99 363.12 300.91
  Q 366.01 313.43 371.34 325.35
  Q 371.82 326.42 372.18 325.30
  Z"
/>
<path fill="#3c3b39" d="
  M 346.99 311.16
  Q 347.09 317.40 346.99 324.21
  C 346.94 327.65 349.21 329.37 352.74 328.97
  Q 354.94 328.73 356.11 327.94
  Q 356.69 327.54 356.71 328.25
  L 356.81 331.69
  Q 356.83 332.30 356.26 332.52
  Q 354.08 333.34 351.08 333.31
  Q 343.12 333.23 342.80 326.12
  Q 342.45 317.96 342.66 301.16
  Q 342.66 300.76 343.06 300.69
  L 346.48 300.14
  Q 347.18 300.02 347.16 300.73
  L 346.99 305.75
  A 0.51 0.50 -90.0 0 0 347.50 306.27
  L 355.76 306.21
  A 0.56 0.56 0.0 0 1 356.33 306.76
  L 356.40 309.91
  Q 356.41 310.50 355.83 310.49
  L 347.72 310.43
  Q 346.98 310.42 346.99 311.16
  Z"
/>
<path fill="#3c3b39" d="
  M 255.88 311.73
  L 255.92 332.30
  A 0.47 0.46 90.0 0 1 255.45 332.78
  L 251.76 332.74
  Q 251.29 332.73 251.29 332.26
  L 251.23 309.21
  Q 251.23 308.60 251.80 308.36
  C 256.92 306.23 264.08 304.56 268.40 308.01
  A 1.16 1.13 -39.5 0 0 269.67 308.12
  C 275.44 304.93 283.71 304.82 287.07 311.12
  Q 288.45 313.73 288.38 318.67
  Q 288.28 325.92 288.32 332.29
  Q 288.32 332.83 287.78 332.83
  L 284.20 332.79
  Q 283.63 332.79 283.62 332.22
  Q 283.47 325.35 283.60 316.96
  C 283.71 309.81 277.34 308.52 272.17 311.61
  Q 271.69 311.89 271.76 312.45
  Q 272.03 314.60 272.04 316.54
  Q 272.07 324.21 272.04 332.19
  A 0.58 0.57 -89.0 0 1 271.46 332.76
  L 268.05 332.72
  Q 267.50 332.71 267.50 332.16
  Q 267.49 324.44 267.50 315.96
  C 267.51 309.62 261.20 309.63 256.58 310.82
  Q 255.88 311.01 255.88 311.73
  Z"
/>
<path fill="#3c3b39" d="
  M 310.25 316.89
  C 311.27 308.23 301.92 309.69 296.89 311.43
  A 0.35 0.35 0.0 0 1 296.44 311.22
  L 295.48 308.51
  Q 295.33 308.07 295.76 307.89
  C 303.98 304.33 315.39 304.72 315.40 316.51
  Q 315.40 323.91 315.47 330.40
  Q 315.48 330.95 314.97 331.13
  C 309.29 333.17 303.25 334.39 297.85 331.40
  C 290.99 327.59 293.12 319.89 300.02 317.62
  Q 305.00 315.99 309.63 317.31
  Q 310.18 317.46 310.25 316.89
  Z
  M 310.53 327.08
  L 310.53 322.58
  A 1.99 1.99 0.0 0 0 308.55 320.59
  L 304.98 320.58
  A 6.30 3.96 0.1 0 0 298.67 324.53
  L 298.67 325.09
  A 6.30 3.96 0.1 0 0 304.96 329.06
  L 308.53 329.07
  A 1.99 1.99 0.0 0 0 310.53 327.08
  Z"
/>
<path fill="#3c3b39" d="
  M 327.12 311.76
  L 327.12 332.32
  A 0.68 0.67 0.4 0 1 326.43 332.99
  L 323.17 332.94
  Q 322.65 332.94 322.65 332.42
  L 322.53 308.27
  A 0.69 0.69 0.0 0 1 323.02 307.60
  Q 329.91 305.43 337.12 306.23
  Q 337.90 306.32 337.89 307.10
  L 337.86 309.76
  Q 337.85 310.41 337.21 310.36
  Q 332.41 309.95 327.96 310.76
  Q 327.12 310.91 327.12 311.76
  Z"
/>
<path fill="#3c3b39" d="
  M 182.7797 333.5836
  A 13.71 12.38 87.2 0 1 169.7448 320.4948
  A 13.71 12.38 87.2 0 1 181.4403 306.1964
  A 13.71 12.38 87.2 0 1 194.4752 319.2852
  A 13.71 12.38 87.2 0 1 182.7797 333.5836
  Z
  M 181.9853 327.2900
  A 7.25 4.55 89.8 0 0 186.5100 320.0241
  A 7.25 4.55 89.8 0 0 181.9347 312.7900
  A 7.25 4.55 89.8 0 0 177.4100 320.0559
  A 7.25 4.55 89.8 0 0 181.9853 327.2900
  Z"
/>
<path fill="#3c3b39" d="
  M 205.46 333.92
  L 205.42 341.34
  Q 205.42 341.83 204.92 341.83
  L 198.29 341.84
  Q 197.74 341.84 197.74 341.29
  L 197.73 309.22
  Q 197.73 308.62 198.29 308.41
  C 204.40 306.09 215.58 304.54 219.00 311.42
  Q 223.26 320.00 218.70 328.43
  C 216.55 332.41 210.23 333.76 206.31 333.18
  Q 205.46 333.06 205.46 333.92
  Z
  M 205.52 313.79
  L 205.58 325.93
  A 0.92 0.92 0.0 0 0 206.51 326.85
  L 208.32 326.84
  A 5.92 5.53 89.7 0 0 213.82 320.89
  L 213.80 318.75
  A 5.92 5.53 89.7 0 0 208.24 312.86
  L 206.43 312.87
  A 0.92 0.92 0.0 0 0 205.52 313.79
  Z"
/>
</svg>
